<?xml version="1.0" encoding="UTF-8" standalone="no"?>
<!-- Created with Inkscape (http://www.inkscape.org/) -->

<svg
   xmlns:dc="http://purl.org/dc/elements/1.1/"
   xmlns:cc="http://creativecommons.org/ns#"
   xmlns:rdf="http://www.w3.org/1999/02/22-rdf-syntax-ns#"
   xmlns:svg="http://www.w3.org/2000/svg"
   xmlns="http://www.w3.org/2000/svg"
   xmlns:sodipodi="http://sodipodi.sourceforge.net/DTD/sodipodi-0.dtd"
   xmlns:inkscape="http://www.inkscape.org/namespaces/inkscape"
   width="280.96829mm"
   height="74.52832mm"
   viewBox="0 0 995.5569 264.07672"
   id="svg2"
   version="1.1"
   inkscape:version="0.91 r13725"
   sodipodi:docname="Tribune Content Agency.svg">
  <defs
     id="defs4" />
  <sodipodi:namedview
     id="base"
     pagecolor="#ffffff"
     bordercolor="#666666"
     borderopacity="1.0"
     inkscape:pageopacity="0.0"
     inkscape:pageshadow="2"
     inkscape:zoom="0.35"
     inkscape:cx="489.9593"
     inkscape:cy="172.81933"
     inkscape:document-units="px"
     inkscape:current-layer="layer1"
     showgrid="false"
     fit-margin-top="0"
     fit-margin-left="0"
     fit-margin-right="0"
     fit-margin-bottom="0"
     inkscape:window-width="1600"
     inkscape:window-height="837"
     inkscape:window-x="-8"
     inkscape:window-y="-8"
     inkscape:window-maximized="1" />
  <metadata
     id="metadata7">
    <rdf:RDF>
      <cc:Work
         rdf:about="">
        <dc:format>image/svg+xml</dc:format>
        <dc:type
           rdf:resource="http://purl.org/dc/dcmitype/StillImage" />
        <dc:title></dc:title>
      </cc:Work>
    </rdf:RDF>
  </metadata>
  <g
     inkscape:label="Layer 1"
     inkscape:groupmode="layer"
     id="layer1"
     transform="translate(-135.07869,-441.10483)">
    <g
       id="g3419"
       transform="matrix(0.80389666,0,0,0.80389666,135.07863,441.10483)"
       style="fill:#000000">
      <path
         id="path3339"
         d="M 218.76898,268.11618 85.884636,232.51105 c -6.878723,-1.84102 -12.451569,-9.1243 -12.451569,-16.23395 l 0,-205.524313 C 73.433067,4.5202417 77.7062,0 83.62854,0 c 1.054474,0 2.158012,0.1466833 3.243172,0.4370565 L 219.73762,36.04219 c 6.88485,1.841026 12.46388,9.118316 12.46388,16.236949 l 0,205.521301 c 0,6.23557 -4.28545,10.75281 -10.19548,10.75281 -1.06677,0 -2.14574,-0.14669 -3.23704,-0.43707 M 77.234154,10.752787 l 0,205.524303 c 0,5.40035 4.407989,11.15691 9.637558,12.5549 l 132.865908,35.60215 c 0.78473,0.20654 1.54495,0.31732 2.2684,0.31732 3.81334,0 6.38826,-2.80197 6.38826,-6.95102 l 0,-205.5213 c 0,-5.403335 -4.40804,-11.147934 -9.62531,-12.551902 L 85.884636,4.1221013 C 85.112167,3.9125535 84.364204,3.8137667 83.62854,3.8137667 c -3.819473,0 -6.394386,2.7899769 -6.394386,6.9390203"
         inkscape:connector-curvature="0"
         style="fill:#000000" />
      <path
         id="path3341"
         d="M 0,317.73108 0,185.63824 C 0,178.5256 5.5912733,171.24232 12.451572,169.40428 L 218.77021,114.12263 c 1.08516,-0.30235 2.17639,-0.44304 3.23704,-0.44304 5.91004,0 10.19547,4.52623 10.19547,10.75278 l 0,132.10181 c 0,7.11566 -5.57901,14.40491 -12.44544,16.23996 L 13.450899,328.05579 c -1.091285,0.2814 -2.182569,0.44006 -3.24317,0.44006 C 4.2915168,328.49585 0,323.96661 0,317.73108 M 219.75728,117.7987 13.444778,173.08035 c -5.2234417,1.39798 -9.6314255,7.14858 -9.6314255,12.55789 l 0,132.09284 c 0,4.95431 3.8501101,7.93286 8.6566085,6.63968 L 218.77021,269.08908 c 5.21727,-1.392 9.61917,-7.14258 9.61917,-12.5549 l 0,-132.10181 c 0,-4.14904 -2.56879,-6.945 -6.38213,-6.945 -0.72347,0 -1.48981,0.10477 -2.24997,0.31133"
         inkscape:connector-curvature="0"
         style="fill:#000000" />
      <polygon
         id="polygon3343"
         points="316.71103,158.52577 316.71103,53.018543 284.35898,53.018543 284.35898,47.037456 284.35898,40.984524 362.93695,40.984524 362.93695,46.956631 362.93695,53.018543 330.57877,53.018543 330.57877,158.52577 323.6449,158.52577 "
         style="fill:#000000" />
      <path
         id="path3345"
         d="m 360.05978,118.28065 c 0,-10.46241 -0.30041,-19.20653 -0.87671,-26.214404 -0.59469,-7.013855 -1.63693,-13.818169 -3.11441,-20.400955 l 6.76221,0 6.86649,0 c 1.47748,4.038277 2.51971,8.735138 3.10827,14.099556 l 0.0797,-0.08083 c 5.51771,-10.941376 13.62867,-16.410568 24.30848,-16.410568 7.74933,0 13.42639,2.322983 17.00674,6.974945 3.59262,4.648964 5.38895,12.010071 5.38895,22.107269 l 0,0.245468 -13.63483,0 0,-1.19442 c 0,-5.310531 -0.82153,-9.294929 -2.47687,-11.962173 -1.63073,-2.652275 -4.12594,-3.978409 -7.47336,-3.978409 -7.18524,0 -13.05856,5.654793 -17.61364,16.976349 l -2.56879,7.406022 c -0.68664,1.91885 -1.20779,4.39151 -1.58176,7.44792 -0.37396,3.05939 -0.55792,6.25948 -0.55792,9.60326 l 0,35.62609 -6.78061,0 -6.84192,0 0,-40.24512 z"
         inkscape:connector-curvature="0"
         style="fill:#000000" />
      <path
         id="path3347"
         d="m 436.52261,83.696312 -11.94271,0 0,-12.034019 5.26635,0 20.31116,0 0,86.860487 -6.76828,0 -6.86652,0 0,-74.826468 z m 6.82975,-42.714783 c 2.50128,0 4.60415,0.865132 6.31466,2.589409 1.70438,1.727272 2.56876,3.843704 2.56876,6.337318 0,2.502598 -0.86438,4.592087 -2.56876,6.298405 -1.71051,1.697334 -3.81338,2.544506 -6.31466,2.544506 -2.52588,0 -4.62268,-0.847172 -6.3393,-2.544506 -1.70434,-1.706318 -2.55038,-3.795807 -2.55038,-6.298405 0,-2.493614 0.84604,-4.610046 2.55038,-6.337318 1.71662,-1.724277 3.81342,-2.589409 6.3393,-2.589409"
         inkscape:connector-curvature="0"
         style="fill:#000000" />
      <path
         id="path3349"
         d="m 466.22748,37.476097 6.77447,0 6.85416,0 0,36.257729 c 5.36441,-2.978569 11.55655,-4.463364 18.57013,-4.463364 10.2568,0 18.61301,4.292732 25.09933,12.869217 6.48023,8.582466 9.72956,19.598691 9.72956,33.024701 0,13.71041 -3.19409,24.76853 -9.57624,33.15642 -6.36987,8.39987 -14.78744,12.59381 -25.25265,12.59381 -8.06806,-0.0569 -15.03259,-3.32281 -20.88751,-9.80383 l -1.98639,9.48952 -13.39569,-2.07752 c 1.28738,-3.93051 2.2745,-7.96879 2.99792,-12.11485 0.71732,-4.14305 1.07291,-7.93886 1.07291,-11.39041 l 0,-97.541423 z m 30.68451,111.407493 c 6.96444,0 12.43927,-3.0145 16.44885,-9.05246 4.01562,-6.02899 6.02032,-14.24325 6.02032,-24.66675 0,-10.45643 -2.0047,-18.721585 -6.02032,-24.780499 -4.00958,-6.049942 -9.48441,-9.085388 -16.44885,-9.085388 -6.96457,0 -12.42713,2.104454 -16.42432,6.30439 l -0.63156,0.637626 0,47.725971 0.63156,1.19741 c 4.04623,7.80416 9.51486,11.7197 16.42432,11.7197"
         inkscape:connector-curvature="0"
         style="fill:#000000" />
      <path
         id="path3351"
         d="m 555.43567,129.1951 c 0,6.63966 1.02991,11.62689 3.10211,14.94073 2.07825,3.32283 5.17432,4.97826 9.32489,4.97826 7.96381,0 14.13751,-4.93933 18.49652,-14.81203 0.84601,-1.97273 1.58783,-4.0682 2.2193,-6.29541 0.68665,-2.34094 1.22614,-4.98423 1.594,-7.93886 0.37396,-2.94863 0.55792,-5.8314 0.55792,-8.63935 l 0,-39.769138 6.77453,0 6.85419,0 0,51.000898 c 0,6.64565 0.29431,12.64171 0.87665,18.01212 0.58856,5.36441 1.61236,11.31856 3.10223,17.85345 l -6.76843,0 -6.86029,0 c -1.42853,-3.8856 -2.44006,-8.47171 -3.02246,-13.78824 -5.47479,10.83362 -13.57965,16.22199 -24.30847,16.17409 -9.1778,0 -15.75611,-2.55049 -19.68586,-7.65147 -3.92987,-5.095 -5.88562,-13.61762 -5.88562,-25.57679 l 0,-56.024058 6.75617,0 6.87262,0 0,57.535798 z"
         inkscape:connector-curvature="0"
         style="fill:#000000" />
      <path
         id="path3353"
         d="m 620.96246,107.52487 c 0,-6.59476 -0.2882,-12.56687 -0.8706,-17.937269 -0.59473,-5.364426 -1.63074,-11.336533 -3.12049,-17.925309 l 6.78052,0 6.84204,0 c 1.50202,4.044274 2.52576,8.735146 3.12049,14.105553 l 0.0736,-0.152672 c 5.78742,-10.85157 14.47468,-16.290832 26.06183,-16.344711 8.17847,0 14.15595,2.200249 17.9325,6.615715 3.76428,4.406487 5.65875,11.402382 5.65875,20.960747 l 0,61.675856 -6.78064,0 -6.85419,0 0,-59.685149 c 0,-5.786514 -0.89508,-10.133125 -2.70983,-13.033867 -1.80243,-2.885765 -4.51227,-4.340629 -8.12323,-4.340629 -7.76764,0 -14.13752,5.292579 -19.1341,15.856773 -1.16492,2.451706 -2.17035,5.020162 -3.02862,7.729312 -0.68049,2.18229 -1.2323,4.80762 -1.63086,7.89097 -0.40461,3.08334 -0.59467,6.16668 -0.59467,9.24404 l 0,36.33855 -6.77447,0 -6.84803,0 0,-50.99791 z"
         inkscape:connector-curvature="0"
         style="fill:#000000" />
      <path
         id="path3355"
         d="m 729.9325,160.91162 c -12.0224,0 -21.40247,-4.03828 -28.17707,-12.11185 -6.78052,-8.07058 -10.15863,-19.28736 -10.15863,-33.6294 0,-14.07561 3.35352,-25.244505 10.06671,-33.503675 6.71936,-8.259171 15.78058,-12.396233 27.13483,-12.396233 10.41608,0 18.54553,3.813766 24.38812,11.441299 5.84876,7.624535 8.77313,18.176758 8.77313,31.677609 l 0.0735,6.92106 -56.45202,0 c 0.42303,8.98062 2.42163,15.97651 5.97741,20.96675 4.04633,5.73262 9.96869,8.60641 17.7793,8.60641 4.40796,0 8.44202,-0.80228 12.07141,-2.40381 3.64172,-1.59256 6.63348,-3.85568 8.9693,-6.78036 l 10.14032,6.63368 c -3.24323,4.67291 -7.5163,8.27113 -12.83789,10.79768 -5.3092,2.51458 -11.22534,3.78084 -17.74847,3.78084 m 18.09191,-53.38675 c -0.0981,-8.396872 -1.86377,-14.859915 -5.30316,-19.407103 -3.41485,-4.544189 -8.46045,-6.819275 -15.15521,-6.819275 -7.06274,0 -12.52515,2.954621 -16.41211,8.851891 -2.8692,4.355598 -4.66553,10.148097 -5.40735,17.374487 l 42.27783,0 z"
         inkscape:connector-curvature="0"
         style="fill:#000000" />
      <path
         id="path3357"
         d="m 364.70755,265.02686 c 0.15936,8.12445 -2.53815,14.85693 -8.07425,20.22134 -5.5545,5.35245 -12.56195,8.03766 -21.0469,8.03766 -11.83237,0 -20.71589,-5.07706 -26.63205,-15.2431 -5.91007,-10.15708 -8.89576,-25.42412 -8.9509,-45.80112 0,-19.57475 3.08377,-34.6532 9.27585,-45.23834 6.17978,-10.58815 14.94677,-15.88073 26.3071,-15.88073 8.10488,0 14.71994,2.26313 19.8146,6.76839 5.08856,4.50827 7.76767,10.48337 8.02518,17.90735 l -7.63278,0 c -0.1594,-5.41831 -2.09674,-9.7769 -5.80582,-13.09374 -3.71527,-3.31085 -8.52176,-4.97225 -14.40118,-4.97225 -8.92026,0 -15.81125,4.72081 -20.66068,14.16241 -4.84946,9.44162 -7.27725,22.89757 -7.27725,40.34691 0.0552,18.51503 2.34811,32.22244 6.88486,41.11325 4.5368,8.8818 11.54425,13.32123 21.05307,13.32123 6.46792,0 11.73425,-2.01764 15.79284,-6.04395 4.05246,-4.0293 6.03269,-9.23508 5.92847,-15.60531 l 7.39984,0 z"
         inkscape:connector-curvature="0"
         style="fill:#000000" />
      <path
         id="path3359"
         d="m 381.6272,281.18597 c -5.78125,-8.0556 -8.68112,-19.26342 -8.68112,-33.5785 0,-14.38396 2.89987,-25.61272 8.68112,-33.70725 5.78137,-8.09152 13.76971,-12.13279 23.95288,-12.13279 10.24454,0 18.23907,4.04127 23.99582,12.13279 5.7507,8.09453 8.63217,19.32329 8.63217,33.70725 0,14.31508 -2.88147,25.5229 -8.63217,33.5785 -5.75675,8.0676 -13.75128,12.10288 -23.99582,12.10288 -10.18317,0 -18.17151,-4.03528 -23.95288,-12.10288 m 42.46173,-4.66095 c 4.31604,-6.75341 6.48019,-16.39859 6.48019,-28.91755 0,-12.57884 -2.16415,-22.26593 -6.48019,-29.0463 -4.33444,-6.79533 -10.49588,-10.19 -18.50885,-10.19 -8.01285,0 -14.17429,3.39467 -18.5026,10.19 -4.32217,6.78037 -6.49249,16.46746 -6.49249,29.0463 0,12.51896 2.17032,22.16414 6.49249,28.91755 4.32831,6.76841 10.48975,10.14811 18.5026,10.14811 8.01297,0 14.17441,-3.3797 18.50885,-10.14811"
         inkscape:connector-curvature="0"
         style="fill:#000000" />
      <path
         id="path3361"
         d="m 450.83011,243.94038 c 0,-9.18118 -0.25754,-16.74884 -0.79093,-22.72395 -0.53952,-5.96013 -1.44073,-11.65683 -2.70364,-17.06316 l 3.6539,0 3.66623,0 c 1.22006,4.34662 2.05994,9.52245 2.54422,15.51551 l 0.31882,5.095 c 1.26907,-2.59839 2.80795,-5.095 4.61032,-7.47786 7.3815,-10.13612 16.00131,-15.20418 25.86575,-15.20418 6.89713,0 11.93656,2.1823 15.1185,6.56484 3.18793,4.37654 4.76975,11.33651 4.76975,20.89488 l 0,61.35554 -3.72754,0 -3.73975,0 0,-60.24194 c 0,-7.74129 -0.99322,-13.33322 -2.94891,-16.75484 -1.96799,-3.41861 -5.20502,-5.13092 -9.71732,-5.13092 -8.21521,0 -15.17975,4.25382 -20.88132,12.77043 -5.70166,8.5226 -8.55862,18.93712 -8.55862,31.23757 l 0,38.1197 -3.73361,0 -3.74585,0 0,-46.95662 z"
         inkscape:connector-curvature="0"
         style="fill:#000000" />
      <path
         id="path3363"
         d="m 556.24921,293.28586 c -6.42505,0 -11.36646,-2.03263 -14.84876,-6.09186 -3.47613,-4.05923 -5.21112,-9.85171 -5.21112,-17.38647 l 0,-59.04752 -19.50195,0 0,-6.60674 19.50195,0 0,-26.90292 7.48566,0 0,26.90292 31.11358,0 0,6.60674 -31.11358,0 0,59.04752 c 0,5.62188 1.08514,9.83978 3.25543,12.6477 2.18262,2.8259 5.41345,4.2179 9.71112,4.2179 4.83106,0 9.05512,-1.33811 12.65387,-4.01136 3.60492,-2.6792 6.24115,-6.37024 7.87811,-11.10302 l 6.29016,1.98773 c -2.12738,6.2056 -5.58514,11.04614 -10.38556,14.52463 -4.80041,3.47549 -10.41619,5.21475 -16.82891,5.21475"
         inkscape:connector-curvature="0"
         style="fill:#000000" />
      <path
         id="path3365"
         d="m 623.43494,293.28885 c -10.7779,0 -19.1955,-4.03528 -25.2649,-12.10288 -6.07556,-8.0556 -9.11035,-19.26342 -9.11035,-33.5785 0,-14.38695 3.00415,-25.61272 9.0307,-33.70725 6.02655,-8.09152 14.35822,-12.13279 25.03186,-12.13279 9.92572,0 17.65046,4.04127 23.19269,12.13279 5.54834,8.09453 8.31336,19.3203 8.31336,33.70725 l 0.006,1.50874 -57.92951,0 c 0.16547,11.77658 2.51355,20.98468 7.07483,27.6124 4.56134,6.63366 11.10895,9.94452 19.65528,9.94452 4.45092,0 8.71179,-0.87113 12.76428,-2.62534 4.05243,-1.75122 7.46722,-4.16699 10.21997,-7.25034 l 5.58508,3.67008 c -3.54968,4.03528 -7.85345,7.17551 -12.88684,9.43564 -5.04559,2.25711 -10.27521,3.38568 -15.68249,3.38568 m 23.38891,-50.62372 c -0.44146,-10.2379 -2.47687,-18.27554 -6.1308,-24.10396 -4.19964,-6.79832 -10.15252,-10.19 -17.90185,-10.19 -8.3255,0 -14.76904,3.39168 -19.32416,10.19 -3.82562,5.82842 -6.03882,13.86606 -6.68866,24.10396 l 50.04547,0 z"
         inkscape:connector-curvature="0"
         style="fill:#000000" />
      <path
         id="path3367"
         d="m 666.70532,243.94038 c 0,-9.18118 -0.26977,-16.74884 -0.80316,-22.72395 -0.52728,-5.96013 -1.42853,-11.65683 -2.70367,-17.06316 l 3.65393,0 3.6723,0 c 1.22003,4.34662 2.06,9.52245 2.54431,15.51551 l 0.31262,5.095 c 1.28138,-2.59839 2.81403,-5.095 4.61652,-7.47786 7.38141,-10.13612 15.99512,-15.20418 25.86566,-15.20418 6.90332,0 11.93665,2.1823 15.11847,6.56484 3.18805,4.37654 4.77594,11.33651 4.77594,20.89488 l 0,61.35554 -3.73981,0 -3.73974,0 0,-60.24194 c 0,-7.74129 -0.98713,-13.33322 -2.94892,-16.75484 -1.94964,-3.41861 -5.19891,-5.13092 -9.70501,-5.13092 -8.22132,0 -15.18586,4.25382 -20.89362,12.77043 -5.6955,8.5226 -8.55243,18.93712 -8.55243,31.23757 l 0,38.1197 -3.73981,0 -3.73358,0 0,-46.95662 z"
         inkscape:connector-curvature="0"
         style="fill:#000000" />
      <path
         id="path3369"
         d="m 767.95245,293.28586 c -6.42505,0 -11.37262,-2.03263 -14.84259,-6.09186 -3.47009,-4.05923 -5.21118,-9.85171 -5.21118,-17.38647 l 0,-59.04752 -19.49579,0 0,-6.60674 19.49579,0 0,-26.90292 7.47955,0 0,26.90292 31.11976,0 0,6.60674 -31.11976,0 0,59.04752 c 0,5.62188 1.09131,9.83978 3.25544,12.6477 2.18261,2.8259 5.41961,4.2179 9.71118,4.2179 4.83716,0 9.04895,-1.33811 12.66003,-4.01136 3.61096,-2.6792 6.24103,-6.37024 7.87793,-11.10302 l 6.29016,1.98773 c -2.12115,6.2056 -5.57891,11.04614 -10.3916,14.52463 -4.80041,3.47549 -10.40997,5.21475 -16.82892,5.21475"
         inkscape:connector-curvature="0"
         style="fill:#000000" />
      <path
         id="path3371"
         d="m 831.50519,173.50842 5.8855,0 5.97754,0 33.50457,117.39157 -3.97888,0 -3.96661,0 -10.20771,-35.73085 -42.73761,0 -10.02984,35.73085 -3.97278,0 -3.97888,0 33.5047,-117.39157 z m -13.63483,75.03902 39.13263,0 -19.71655,-68.18381 0.049,0 -19.46509,68.18381 z"
         inkscape:connector-curvature="0"
         style="fill:#000000" />
      <path
         id="path3373"
         d="m 906.51691,311.66318 c 8.00677,0 14.19268,-2.51758 18.54547,-7.55271 4.3529,-5.04409 6.52929,-12.20465 6.52929,-21.49359 l 0,-10.50134 -0.47821,0.40414 c -7.27099,6.68756 -15.61505,10.01639 -25.07482,10.01639 -8.7486,0 -15.89704,-3.76288 -21.44538,-11.29764 -5.54217,-7.52874 -8.31946,-17.20984 -8.31946,-29.04927 0,-12.14479 2.98572,-21.92767 8.96314,-29.3217 5.95911,-7.40602 13.83105,-11.10303 23.59125,-11.10303 8.32556,0.0479 16.3139,3.72097 23.95288,10.98029 l 2.54419,-9.79185 7.48571,0 c -1.17089,3.66108 -2.08441,7.77421 -2.74652,12.33636 -0.66217,4.55916 -0.99322,9.07941 -0.99322,13.53677 l 0,53.79088 c 0,10.92942 -2.8263,19.60468 -8.47272,26.02582 -5.65863,6.42413 -13.30987,9.63022 -22.95972,9.63022 -4.7268,0 -9.30035,-0.99387 -13.72674,-2.99054 -4.43866,-1.98175 -8.21521,-4.75375 -11.34198,-8.32205 l 4.83111,-4.82859 c 2.66071,2.96064 5.6709,5.28959 9.04279,6.99891 3.36578,1.68835 6.72546,2.53253 10.07294,2.53253 m 0.79699,-35.73685 c 7.64502,0 14.43793,-2.83188 20.3725,-8.50165 1.42853,-1.38601 2.73432,-2.84985 3.90527,-4.38254 l 0,-41.06535 c -0.74792,-1.00583 -1.60015,-1.95477 -2.55041,-2.86781 -7.16071,-7.15454 -14.59125,-10.7408 -22.28528,-10.7408 -6.83581,0 -12.35968,3.11327 -16.5592,9.31589 -4.18122,6.20559 -6.27173,14.37796 -6.27173,24.50509 0,9.92058 2.1886,18.03905 6.59662,24.35842 4.3529,6.25351 9.95025,9.37875 16.79223,9.37875"
         inkscape:connector-curvature="0"
         style="fill:#000000" />
      <path
         id="path3375"
         d="m 985.98816,293.28885 c -10.7594,0 -19.18921,-4.03528 -25.26489,-12.10288 -6.0694,-8.0556 -9.11023,-19.26342 -9.11023,-33.5785 0,-14.38695 3.01019,-25.61272 9.03058,-33.70725 6.02044,-8.09152 14.36438,-12.13279 25.03192,-12.13279 9.91955,0 17.65046,4.04127 23.20496,12.13279 5.5361,8.09453 8.3072,19.3203 8.3072,33.70725 l 0,1.50874 -57.92348,0 c 0.15326,11.77658 2.51361,20.98468 7.08106,27.6124 4.55511,6.63366 11.09661,9.94452 19.64288,9.94452 4.45093,0 8.70569,-0.87113 12.76428,-2.62534 4.05856,-1.75122 7.46726,-4.16699 10.22616,-7.25034 l 5.5851,3.67008 c -3.5558,4.03528 -7.8597,7.17551 -12.893,9.43564 -5.03947,2.25711 -10.26292,3.38568 -15.68254,3.38568 m 23.38284,-50.62372 c -0.417,-10.2379 -2.4646,-18.27554 -6.1247,-24.10396 -4.19344,-6.79832 -10.15255,-10.19 -17.89571,-10.19 -8.3255,0 -14.76282,3.39168 -19.32416,10.19 -3.81946,5.82842 -6.04486,13.86606 -6.68866,24.10396 l 50.03323,0 z"
         inkscape:connector-curvature="0"
         style="fill:#000000" />
      <path
         id="path3377"
         d="m 1029.2524,243.94038 c 0,-9.18118 -0.2638,-16.74884 -0.791,-22.72395 -0.5333,-5.96013 -1.4284,-11.65683 -2.7098,-17.06316 l 3.6601,0 3.6662,0 c 1.2201,4.34662 2.0599,9.52245 2.5443,15.51551 l 0.3187,5.095 c 1.2692,-2.59839 2.808,-5.095 4.6104,-7.47786 7.3816,-10.13612 15.9952,-15.20418 25.8596,-15.20418 6.9093,0 11.9488,2.1823 15.1307,6.56484 3.1819,4.37654 4.7759,11.33651 4.7759,20.89488 l 0,61.35554 -3.7397,0 -3.7398,0 0,-60.24194 c 0,-7.74129 -0.9872,-13.33322 -2.9551,-16.75484 -1.9496,-3.41861 -5.1927,-5.13092 -9.7049,-5.13092 -8.2276,0 -15.192,4.25382 -20.8815,12.77043 -5.7015,8.5226 -8.5647,18.93712 -8.5647,31.23757 l 0,38.1197 -3.7397,0 -3.7397,0 0,-46.95662 z"
         inkscape:connector-curvature="0"
         style="fill:#000000" />
      <path
         id="path3379"
         d="m 1162.4438,278.71631 c -4.034,4.56213 -8.6137,8.13644 -13.7207,10.71088 -5.1252,2.57742 -10.2323,3.85867 -15.3269,3.85867 -11.0843,0 -19.7656,-4.03531 -26.025,-12.0969 -6.2596,-8.06158 -9.3924,-19.26339 -9.3924,-33.5845 0,-14.38394 3.1328,-25.60971 9.3924,-33.70723 6.2594,-8.08554 14.9407,-12.1328 26.025,-12.1328 6.2596,0 11.955,1.59256 17.068,4.78068 5.1193,3.18212 9.1104,7.57963 11.9796,13.2015 l -6.3392,4.12509 c -2.4952,-4.87947 -5.7016,-8.67527 -9.6315,-11.40837 -3.9359,-2.72412 -8.1722,-4.09515 -12.7397,-4.09515 -8.9753,0 -15.9032,3.39467 -20.7833,10.19598 -4.8863,6.77437 -7.3262,16.46447 -7.3262,29.0403 0,12.52497 2.4399,22.16715 7.3324,28.92356 4.8801,6.76242 11.8077,10.1481 20.7833,10.1481 3.6662,0 7.553,-1.15851 11.7035,-3.49045 4.1445,-2.323 8.0498,-5.57697 11.716,-9.75894 l 5.2847,5.28958 z"
         inkscape:connector-curvature="0"
         style="fill:#000000" />
      <path
         id="path3381"
         d="m 1202.8431,298.60538 c -3.3658,7.38205 -6.7868,12.57583 -10.2629,15.56637 -3.4823,3.00553 -7.7983,4.49631 -12.942,4.49631 -5.2543,0 -9.3986,-1.32614 -12.4149,-3.97543 -3.0347,-2.65226 -5.2172,-6.90308 -6.6089,-12.73749 l 6.5292,-3.63715 c 1.2199,4.75672 2.8017,8.24121 4.7329,10.44147 1.9373,2.20023 4.4693,3.29886 7.6023,3.29886 3.1265,0 5.9161,-1.0687 8.3438,-3.21805 2.4462,-2.14636 4.7331,-5.55002 6.8544,-10.20795 l 7.1729,-18.60784 0,-0.11075 -27.662,-75.76345 3.985,0 3.979,0 23.7014,65.2621 -0.012,0 24.4925,-65.2621 3.9973,0 4.083,0 -35.5706,94.4551 z"
         inkscape:connector-curvature="0"
         style="fill:#000000" />
      <g
         id="g3383"
         style="fill:#000000" />
      <g
         id="g3385"
         style="fill:#000000" />
      <g
         id="g3387"
         style="fill:#000000" />
      <g
         id="g3389"
         style="fill:#000000" />
      <g
         id="g3391"
         style="fill:#000000" />
      <g
         id="g3393"
         style="fill:#000000" />
      <g
         id="g3395"
         style="fill:#000000" />
      <g
         id="g3397"
         style="fill:#000000" />
      <g
         id="g3399"
         style="fill:#000000" />
      <g
         id="g3401"
         style="fill:#000000" />
      <g
         id="g3403"
         style="fill:#000000" />
      <g
         id="g3405"
         style="fill:#000000" />
      <g
         id="g3407"
         style="fill:#000000" />
      <g
         id="g3409"
         style="fill:#000000" />
      <g
         id="g3411"
         style="fill:#000000" />
    </g>
  </g>
</svg>
